<?xml version="1.0" encoding="utf-8"?>
<!-- Generator: Adobe Illustrator 19.0.0, SVG Export Plug-In . SVG Version: 6.00 Build 0)  -->
<svg version="1.1" id="Vrstva_1" xmlns="http://www.w3.org/2000/svg" xmlns:xlink="http://www.w3.org/1999/xlink" x="0px" y="0px"
	 viewBox="175 -76.2 945.1 993.1" style="enable-background:new 175 -76.2 945.1 993.1;" xml:space="preserve">
<style type="text/css">
	.st0{fill:none;enable-background:new    ;}
	.st1{fill:none;stroke:#000000;stroke-miterlimit:10;}
	.st2{stroke:#000000;stroke-miterlimit:10;}
	.st3{font-family:'ArialMT';}
	.st4{font-size:16px;}
	.st5{font-size:19px;}
	.st6{font-family:'Arial-BoldMT';}
	.st7{fill:#FFFFFF;stroke:#000000;}
	.st8{font-size:12px;}
	.st9{fill:none;stroke:#000000;}
	.st10{enable-background:new    ;}
</style>
<path class="st0" d="M175-76.2"/>
<g>
	<path pointer-events="stroke" class="st1" d="M729.4,501.3c0,0,46.5-69.2,139.6-207.5"/>
	<path pointer-events="all" class="st2" d="M871.9,289.4l-1,7.8l-1.9-3.4l-3.9-0.5L871.9,289.4z"/>
	<g transform="translate(-0.5 -0.5)">
		<text transform="matrix(1 0 0 1 777.2056 377.4881)" class="st3 st4">a-z,A-Z,_</text>
	</g>
	<path pointer-events="stroke" class="st1" d="M734.5,505.3c41.8-44.6,84.5-74.2,128.3-89"/>
	<path pointer-events="all" class="st2" d="M867.8,414.7l-5.5,5.5l0.5-3.9l-2.8-2.8L867.8,414.7z"/>
	<g transform="translate(-0.5 -0.5)">
		<text transform="matrix(1 0 0 1 800.2041 433.8681)" class="st3 st4">1-9</text>
	</g>
	<path pointer-events="stroke" class="st1" d="M691.9,571.5c0,0-17,41.1-50.9,123.4"/>
	<path pointer-events="all" class="st2" d="M639,699.7l-0.6-7.8l2.6,3l3.9-0.3L639,699.7z"/>
	<g transform="translate(-0.5 -0.5)">
		<text transform="matrix(1 0 0 1 645.8774 673.5148)" class="st3 st4">/</text>
	</g>
	<path pointer-events="stroke" class="st1" d="M712.2,494.8c0,0,14.9-113.4,44.6-340.3"/>
	<path pointer-events="all" class="st2" d="M757.5,149.3l2.6,7.4l-3.2-2.2l-3.7,1.3L757.5,149.3z"/>
	<g transform="translate(-0.5 -0.5)">
		<text transform="matrix(1 0 0 1 758.095 188.1248)" class="st3 st4">+</text>
	</g>
	<path pointer-events="stroke" class="st1" d="M703.9,494.6c0,0-9.5-116.6-28.5-349.9"/>
	<path pointer-events="all" class="st2" d="M675,139.5l4,6.7l-3.6-1.5l-3.3,2L675,139.5z"/>
	<g transform="translate(-0.5 -0.5)">
		<text transform="matrix(1 0 0 1 682.8228 170.7915)" class="st3 st4">-</text>
	</g>
	<path pointer-events="stroke" class="st1" d="M695.8,496.1c0,0-34-114.3-101.9-343"/>
	<path pointer-events="all" class="st2" d="M592.4,148.1l5.3,5.7l-3.8-0.7l-2.9,2.7L592.4,148.1z"/>
	<g transform="translate(-0.5 -0.5)">
		<text transform="matrix(1 0 0 1 609.095 183.7048)" class="st3 st4">&lt;</text>
	</g>
	<path pointer-events="stroke" class="st1" d="M688.1,499.3c0,0-55.5-103.1-166.4-309.4"/>
	<path pointer-events="all" class="st2" d="M519.2,185.3l6.4,4.5l-3.9,0.1l-2.3,3.2L519.2,185.3z"/>
	<g transform="translate(-0.5 -0.5)">
		<text transform="matrix(1 0 0 1 533.095 210.799)" class="st3 st4">&gt;</text>
	</g>
	<path pointer-events="stroke" class="st1" d="M681.3,503.9c0,0-74.2-87.9-222.6-263.8"/>
	<path pointer-events="all" class="st2" d="M455.4,236.1l7.2,3.1l-3.8,0.9l-1.5,3.6L455.4,236.1z"/>
	<g transform="translate(-0.5 -0.5)">
		<text transform="matrix(1 0 0 1 482.7617 265.6248)" class="st3 st4">=</text>
	</g>
	<path pointer-events="stroke" class="st1" d="M675.6,509.8c0,0-88.3-69.6-264.9-208.8"/>
	<path pointer-events="all" class="st2" d="M406.6,297.7l7.7,1.6l-3.5,1.7l-0.8,3.8L406.6,297.7z"/>
	<g transform="translate(-0.5 -0.5)">
		<text transform="matrix(1 0 0 1 435.5442 310.9581)" class="st3 st4">!</text>
	</g>
	<path pointer-events="stroke" class="st1" d="M671.6,516.1c0,0-94.1-48.6-282.2-145.9"/>
	<path pointer-events="all" class="st2" d="M384.8,367.7l7.8,0.1l-3.2,2.3l-0.1,3.9L384.8,367.7z"/>
	<g transform="translate(-0.5 -0.5)">
		<text transform="matrix(1 0 0 1 430.0989 384.2914)" class="st3 st4">:</text>
	</g>
	<path pointer-events="stroke" class="st1" d="M668.7,523.4c0,0-130.9-37.8-392.8-113.5"/>
	<path pointer-events="all" class="st2" d="M270.8,408.5l7.7-1.4l-2.6,2.9l0.7,3.8L270.8,408.5z"/>
	<g transform="translate(-0.5 -0.5)">
		<text transform="matrix(1 0 0 1 353.4607 421.2015)" class="st3 st5">,</text>
	</g>
	<path pointer-events="stroke" class="st1" d="M667.3,530.1L288.2,488"/>
	<path pointer-events="all" class="st2" d="M283,487.4l7.3-2.7l-2.1,3.3l1.3,3.7L283,487.4z"/>
	<g transform="translate(-0.5 -0.5)">
		<text transform="matrix(1 0 0 1 361.2512 488.8481)" class="st3 st4">{</text>
	</g>
	<path pointer-events="stroke" class="st1" d="M667.2,537.1l-353.8,23.7"/>
	<path pointer-events="all" class="st2" d="M308.1,561.1l6.8-4l-1.5,3.6l2,3.4L308.1,561.1z"/>
	<g transform="translate(-0.5 -0.5)">
		<text transform="matrix(1 0 0 1 378.7617 549.6915)" class="st3 st4">}</text>
	</g>
	<path pointer-events="stroke" class="st1" d="M668.3,544.1c0,0-107.3,26.5-322,79.5"/>
	<path pointer-events="all" class="st2" d="M341.2,624.8l6-5.1l-0.9,3.8l2.5,3L341.2,624.8z"/>
	<g transform="translate(-0.5 -0.5)">
		<text transform="matrix(1 0 0 1 388.5928 604.2915)" class="st3 st4">(</text>
	</g>
	<path pointer-events="stroke" class="st1" d="M671,551.7c0,0-90.5,43.2-271.6,129.7"/>
	<path pointer-events="all" class="st2" d="M394.7,683.7l4.8-6.2l-0.1,3.9l3.1,2.4L394.7,683.7z"/>
	<g transform="translate(-0.5 -0.5)">
		<text transform="matrix(1 0 0 1 415.272 664.6981)" class="st3 st4">)</text>
	</g>
	<path pointer-events="stroke" class="st1" d="M746.9,538.7L910.8,557"/>
	<path pointer-events="all" class="st2" d="M916,557.6l-7.4,2.7l2.1-3.3l-1.3-3.7L916,557.6z"/>
	<g transform="translate(-0.5 -0.5)">
		<text transform="matrix(1 0 0 1 864.3071 552.5148)" class="st6 st4">&quot;</text>
	</g>
	<path pointer-events="stroke" class="st1" d="M720,496.6c0,0,36.3-106.3,108.8-319"/>
	<path pointer-events="all" class="st2" d="M830.5,172.7l1.1,7.8l-2.8-2.8l-3.9,0.5L830.5,172.7z"/>
	<g transform="translate(-0.5 -0.5)">
		<text transform="matrix(1 0 0 1 811.9868 248.2915)" class="st3 st4">*</text>
	</g>
	<path pointer-events="stroke" class="st1" d="M675.2,558.6c0,0-70.1,53.3-210.2,159.8"/>
	<path pointer-events="all" class="st2" d="M460.9,721.6l3.4-7l0.7,3.8l3.5,1.7L460.9,721.6z"/>
	<g transform="translate(-0.5 -0.5)">
		<text transform="matrix(1 0 0 1 478.2803 696.3648)" class="st3 st4">;</text>
	</g>
	<path pointer-events="stroke" class="st1" d="M725,570.3c0,0,19.5,38.7,58.6,116.2"/>
	<path pointer-events="all" class="st2" d="M785.9,691.2l-6.3-4.7h3.9l2.3-3.1L785.9,691.2z"/>
	<g transform="translate(-0.5 -0.5)">
		<text transform="matrix(1 0 0 1 755.9597 631.1048)" class="st3 st4">EOF</text>
	</g>
	<path pointer-events="stroke" class="st1" d="M744.1,519.3c0,0,16.6-6.8,49.7-20.3"/>
	<path pointer-events="all" class="st2" d="M798.6,497.1l-5.2,5.9l0.3-3.9l-2.9-2.6L798.6,497.1z"/>
	<g transform="translate(-0.5 -0.5)">
		<text transform="matrix(1 0 0 1 761.8123 506.8848)" class="st3 st4">0</text>
	</g>
	<ellipse pointer-events="all" class="st7" cx="707.1" cy="534.5" rx="40" ry="40"/>
	<g transform="translate(-0.5 -0.5)">
		<text transform="matrix(1 0 0 1 687.9868 538.5148)" class="st3 st8">START</text>
	</g>
	<path pointer-events="stroke" class="st1" d="M867.4,234.7c-0.8-17.5,2.3-28.6,9.3-33.3s15.5-4.7,25.5,0s14.9,13.6,14.8,26.9"/>
	<path pointer-events="all" class="st2" d="M916.9,233.6l-3.4-7l3.5,1.8l3.5-1.7L916.9,233.6z"/>
	<g transform="translate(-0.5 -0.5)">
		<text transform="matrix(1 0 0 1 848.084 196.9581)" class="st3 st4">a-z,A-Z,0-9,_</text>
	</g>
	<path pointer-events="stroke" class="st1" d="M877.4,378.7c-0.8-20.2,6.8-30.3,22.8-30.3s24.7,8,26.2,23.9"/>
	<path pointer-events="all" class="st2" d="M926.7,377.6l-4.1-6.7l3.6,1.4l3.3-2.1L926.7,377.6z"/>
	<g transform="translate(-0.5 -0.5)">
		<text transform="matrix(1 0 0 1 891.0859 347.6615)" class="st3 st4">0-9</text>
	</g>
	<path pointer-events="stroke" class="st1" d="M937.1,403.5c0,0,14.9,0,44.7,0"/>
	<path pointer-events="all" class="st2" d="M987,403.5l-7,3.5l1.8-3.5L980,400L987,403.5z"/>
	<g transform="translate(-0.5 -0.5)">
		<text transform="matrix(1 0 0 1 962.4438 398.0898)" class="st3 st4">.</text>
	</g>
	<path pointer-events="stroke" class="st1" d="M604.9,748.6c0,0-12.3,11.4-36.9,34.3"/>
	<path pointer-events="all" class="st2" d="M564.1,786.5l2.8-7.3l1.1,3.7l3.7,1.4L564.1,786.5z"/>
	<g transform="translate(-0.5 -0.5)">
		<text transform="matrix(1 0 0 1 588.9868 770.5148)" class="st3 st4">*</text>
	</g>
	<path pointer-events="stroke" class="st1" d="M652.9,743.8c0,0,17.6,10.4,52.9,31.2"/>
	<path pointer-events="all" class="st2" d="M710.3,777.6l-7.8-0.5l3.3-2.1l0.3-3.9L710.3,777.6z"/>
	<g transform="translate(-0.5 -0.5)">
		<text transform="matrix(1 0 0 1 679.1001 755.7849)" class="st3 st4">/</text>
	</g>
	<ellipse pointer-events="all" class="st7" cx="627.1" cy="728.5" rx="30" ry="30"/>
	<ellipse pointer-events="all" class="st9" cx="627.1" cy="728.5" rx="26" ry="26"/>
	<g transform="translate(-0.5 -0.5)">
		<text transform="matrix(1 0 0 1 617.0981 732.5148)" class="st3 st8">DIV</text>
	</g>
	<path pointer-events="stroke" class="st1" d="M546.6,778.8c0,0,1.8-11.4,5.3-34.3"/>
	<path pointer-events="all" class="st2" d="M552.7,739.3l2.4,7.5l-3.2-2.3l-3.7,1.2L552.7,739.3z"/>
	<g transform="translate(-0.5 -0.5)">
		<text transform="matrix(1 0 0 1 542.9868 763.5148)" class="st3 st4">*</text>
	</g>
	<ellipse pointer-events="all" class="st7" cx="542.1" cy="808.5" rx="30" ry="30"/>
	<g transform="translate(-0.5 -0.5)">
		<text transform="matrix(1 0 0 1 522.2593 802.9644)" class="st3 st8">BLOCK</text>
		<text transform="matrix(1 0 0 1 511.5593 817.3644)" class="st3 st8">COMMENT</text>
	</g>
	<path pointer-events="stroke" class="st1" d="M853.6,105.4c0,0,4.9-14.3,14.8-42.9"/>
	<path pointer-events="all" class="st2" d="M870.2,57.6l1,7.8l-2.7-2.8l-3.9,0.5L870.2,57.6z"/>
	<g transform="translate(-0.5 -0.5)">
		<text transform="matrix(1 0 0 1 867.2622 95.5915)" class="st3 st4">=</text>
	</g>
	<ellipse pointer-events="all" class="st7" cx="842.1" cy="138.5" rx="35" ry="35"/>
	<ellipse pointer-events="all" class="st9" cx="842.1" cy="138.5" rx="31" ry="31"/>
	<g transform="translate(-0.5 -0.5)">
		<text transform="matrix(1 0 0 1 829.4321 142.5148)" class="st3 st8">MUL</text>
	</g>
	<path pointer-events="stroke" class="st1" d="M631,758.2c0,0,2,14.7,5.9,44.2"/>
	<path pointer-events="all" class="st2" d="M637.7,807.7l-4.4-6.5l3.7,1.3l3.2-2.2L637.7,807.7z"/>
	<g transform="translate(-0.5 -0.5)">
		<text transform="matrix(1 0 0 1 619.7617 786.1364)" class="st3 st4">=</text>
	</g>
	<path pointer-events="stroke" class="st1" d="M765,78.6c0,0,1.3-14.6,3.8-43.9"/>
	<path pointer-events="all" class="st2" d="M769.3,29.5l2.9,7.3l-3.3-2l-3.6,1.4L769.3,29.5z"/>
	<g transform="translate(-0.5 -0.5)">
		<text transform="matrix(1 0 0 1 775.0337 68.2914)" class="st3 st4">=</text>
	</g>
	<ellipse pointer-events="all" class="st7" cx="762.1" cy="113.5" rx="35" ry="35"/>
	<ellipse pointer-events="all" class="st9" cx="762.1" cy="113.5" rx="31" ry="31"/>
	<g transform="translate(-0.5 -0.5)">
		<text transform="matrix(1 0 0 1 746.4263 117.5148)" class="st3 st8">PLUS</text>
	</g>
	<path pointer-events="stroke" class="st1" d="M669,68.6c0,0-1.2-13-3.5-38.9"/>
	<path pointer-events="all" class="st2" d="M665.1,24.5l4.1,6.7l-3.7-1.4l-3.3,2.1L665.1,24.5z"/>
	<g transform="translate(-0.5 -0.5)">
		<text transform="matrix(1 0 0 1 672.9917 55.3049)" class="st3 st4">=</text>
	</g>
	<ellipse pointer-events="all" class="st7" cx="672.1" cy="103.5" rx="35" ry="35"/>
	<ellipse pointer-events="all" class="st9" cx="672.1" cy="103.5" rx="31" ry="31"/>
	<g transform="translate(-0.5 -0.5)">
		<text transform="matrix(1 0 0 1 652.7671 107.5148)" class="st3 st8">MINUS</text>
	</g>
	<ellipse pointer-events="all" class="st7" cx="582.1" cy="113.5" rx="35" ry="35"/>
	<ellipse pointer-events="all" class="st9" cx="582.1" cy="113.5" rx="31" ry="31"/>
	<g transform="translate(-0.5 -0.5)">
		<text transform="matrix(1 0 0 1 566.7573 117.5148)" class="st3 st8">LESS</text>
	</g>
	<path pointer-events="stroke" class="st1" d="M482,124.8c0,0-8.7-12.5-26.2-37.5"/>
	<path pointer-events="all" class="st2" d="M452.9,83.1l6.9,3.7l-3.9,0.6l-1.9,3.4L452.9,83.1z"/>
	<g transform="translate(-0.5 -0.5)">
		<text transform="matrix(1 0 0 1 465.7617 99.5348)" class="st3 st4">=</text>
	</g>
	<ellipse pointer-events="all" class="st7" cx="502.1" cy="153.5" rx="35" ry="35"/>
	<ellipse pointer-events="all" class="st9" cx="502.1" cy="153.5" rx="31" ry="31"/>
	<g transform="translate(-0.5 -0.5)">
		<text transform="matrix(1 0 0 1 473.5415 157.5148)" class="st3 st8">GREATER</text>
	</g>
	<path pointer-events="stroke" class="st1" d="M406.7,184.5c0,0-11.5-10.8-34.5-32.5"/>
	<path pointer-events="all" class="st2" d="M368.3,148.3l7.5,2.3l-3.7,1.4l-1.1,3.8L368.3,148.3z"/>
	<g transform="translate(-0.5 -0.5)">
		<text transform="matrix(1 0 0 1 384.0918 162.7915)" class="st3 st4">=</text>
	</g>
	<ellipse pointer-events="all" class="st7" cx="432.1" cy="208.5" rx="35" ry="35"/>
	<ellipse pointer-events="all" class="st9" cx="432.1" cy="208.5" rx="31" ry="31"/>
	<g transform="translate(-0.5 -0.5)">
		<text transform="matrix(1 0 0 1 409.4272 212.5148)" class="st3 st8">ASSIGN</text>
	</g>
	<ellipse pointer-events="all" class="st7" cx="282.1" cy="208.5" rx="35" ry="35"/>
	<ellipse pointer-events="all" class="st9" cx="282.1" cy="208.5" rx="31" ry="31"/>
	<g transform="translate(-0.5 -0.5)">
		<text transform="matrix(1 0 0 1 270.835 205.1891)" class="st3 st8">NOT</text>
		<text transform="matrix(1 0 0 1 259.135 219.5891)" class="st3 st8">EQUALS</text>
	</g>
	<ellipse pointer-events="all" class="st7" cx="247.1" cy="303.5" rx="35" ry="35"/>
	<ellipse pointer-events="all" class="st9" cx="247.1" cy="303.5" rx="31" ry="31"/>
	<g transform="translate(-0.5 -0.5)">
		<text transform="matrix(1 0 0 1 225.5952 301.4949)" class="st3 st8">DECLA-</text>
		<text transform="matrix(1 0 0 1 224.8953 315.8949)" class="st3 st8">RATION</text>
	</g>
	<ellipse pointer-events="all" class="st7" cx="236.1" cy="398.5" rx="35" ry="35"/>
	<ellipse pointer-events="all" class="st9" cx="236.1" cy="398.5" rx="31" ry="31"/>
	<g transform="translate(-0.5 -0.5)">
		<text transform="matrix(1 0 0 1 213.1021 402.5148)" class="st3 st8">COMMA</text>
	</g>
	<ellipse pointer-events="all" class="st7" cx="247.1" cy="483.5" rx="35" ry="35"/>
	<ellipse pointer-events="all" class="st9" cx="247.1" cy="483.5" rx="31" ry="31"/>
	<g transform="translate(-0.5 -0.5)">
		<text transform="matrix(1 0 0 1 228.0923 487.5148)" class="st3 st8">{ - LBC</text>
	</g>
	<ellipse pointer-events="all" class="st7" cx="272.1" cy="563.5" rx="35" ry="35"/>
	<ellipse pointer-events="all" class="st9" cx="272.1" cy="563.5" rx="31" ry="31"/>
	<g transform="translate(-0.5 -0.5)">
		<text transform="matrix(1 0 0 1 252.0962 567.5148)" class="st3 st8">} - RBC</text>
	</g>
	<ellipse pointer-events="all" class="st7" cx="306.1" cy="633.5" rx="35" ry="35"/>
	<ellipse pointer-events="all" class="st9" cx="306.1" cy="633.5" rx="31" ry="31"/>
	<g transform="translate(-0.5 -0.5)">
		<text transform="matrix(1 0 0 1 287.0981 637.5148)" class="st3 st8">( - LBN</text>
	</g>
	<ellipse pointer-events="all" class="st7" cx="362.1" cy="699.2" rx="35" ry="35"/>
	<ellipse pointer-events="all" class="st9" cx="362.1" cy="699.2" rx="31" ry="31"/>
	<g transform="translate(-0.5 -0.5)">
		<text transform="matrix(1 0 0 1 339.925 706.2915)" class="st3 st8">) - RBN</text>
	</g>
	<ellipse pointer-events="all" class="st7" cx="892.1" cy="259.5" rx="35" ry="35"/>
	<ellipse pointer-events="all" class="st9" cx="892.1" cy="259.5" rx="31" ry="31"/>
	<g transform="translate(-0.5 -0.5)">
		<text transform="matrix(1 0 0 1 871.4341 263.5148)" class="st3 st8">ID / KW</text>
	</g>
	<ellipse pointer-events="all" class="st7" cx="902.1" cy="403.5" rx="35" ry="35"/>
	<ellipse pointer-events="all" class="st9" cx="902.1" cy="403.5" rx="31" ry="31"/>
	<g transform="translate(-0.5 -0.5)">
		<text transform="matrix(1 0 0 1 892.4351 407.5148)" class="st3 st8">INT</text>
	</g>
	<ellipse pointer-events="all" class="st7" cx="1023.1" cy="403.5" rx="35" ry="35"/>
	<ellipse pointer-events="all" class="st9" cx="1023.1" cy="403.5" rx="31" ry="31"/>
	<g transform="translate(-0.5 -0.5)">
		<text transform="matrix(1 0 0 1 1004.2095 407.5148)" class="st3 st8">FLOAT</text>
	</g>
	<path pointer-events="stroke" class="st1" d="M998.4,428.2c-0.2,20.2,3.9,33.6,12.3,40.3c8.3,6.7,16.7,6.7,25,0
		c8.3-6.7,12.4-18,12.3-33.9"/>
	<path pointer-events="all" class="st2" d="M1047.9,429.4l3.6,7l-3.5-1.7l-3.5,1.8L1047.9,429.4z"/>
	<g transform="translate(-0.5 -0.5)">
		<text transform="matrix(1 0 0 1 1012.5376 469.5148)" class="st3 st4">0-9</text>
	</g>
	<path pointer-events="stroke" class="st1" d="M1023.1,368.5c0,0,0-9.5,0-28.6"/>
	<path pointer-events="all" class="st2" d="M1023.1,334.6l3.5,7l-3.5-1.8l-3.5,1.8L1023.1,334.6z"/>
	<g transform="translate(-0.5 -0.5)">
		<text transform="matrix(1 0 0 1 994.2383 361.1249)" class="st3 st4">e,E</text>
	</g>
	<path pointer-events="stroke" class="st1" d="M1023.1,288.5v-43.6"/>
	<path pointer-events="all" class="st2" d="M1023.1,239.6l3.5,7l-3.5-1.8l-3.5,1.8L1023.1,239.6z"/>
	<g transform="translate(-0.5 -0.5)">
		<text transform="matrix(1 0 0 1 985.0469 279.4581)" class="st3 st4">&apos; &apos;,+,-</text>
	</g>
	<ellipse pointer-events="all" class="st7" cx="1023.1" cy="311" rx="22.5" ry="22.5"/>
	<g transform="translate(-0.5 -0.5)">
		<text transform="matrix(1 0 0 1 1015.2593 309.0245)" class="st10"><tspan x="0" y="0" class="st3 st8">opt</tspan><tspan x="1.2" y="14.4" class="st3 st8">+,-</tspan></text>
	</g>
	<ellipse pointer-events="all" class="st7" cx="1023.1" cy="113.5" rx="35" ry="35"/>
	<ellipse pointer-events="all" class="st9" cx="1023.1" cy="113.5" rx="31" ry="31"/>
	<g transform="translate(-0.5 -0.5)">
		<text transform="matrix(1 0 0 1 1004.2095 117.5148)" class="st3 st8">FLOAT</text>
	</g>
	<path pointer-events="stroke" class="st1" d="M929.8,382.1c0,0,23.5-17.9,70.4-53.6"/>
	<path pointer-events="all" class="st2" d="M1004.4,325.3l-3.4,7l-0.7-3.8l-3.5-1.7L1004.4,325.3z"/>
	<g transform="translate(-0.5 -0.5)">
		<text transform="matrix(1 0 0 1 951.918 345.4115)" class="st3 st4">e,E</text>
	</g>
	<path pointer-events="stroke" class="st1" d="M998.4,88.7c-0.2-10.2,1.4-16.9,4.8-20.3c3.3-3.3,11.7-5,25-5s19.9,6.3,19.8,18.9"/>
	<path pointer-events="all" class="st2" d="M1047.9,87.6l-3.4-7l3.5,1.8l3.5-1.7L1047.9,87.6z"/>
	<g transform="translate(-0.5 -0.5)">
		<text transform="matrix(1 0 0 1 1008.2041 59.3049)" class="st3 st4">0-9</text>
	</g>
	<ellipse pointer-events="all" class="st7" cx="947.1" cy="557.8" rx="30" ry="30"/>
	<g transform="translate(-0.5 -0.5)">
		<text transform="matrix(1 0 0 1 930.0991 561.5148)" class="st3 st8">CHAR</text>
	</g>
	<path pointer-events="stroke" class="st1" d="M925.9,536.5c0.1-22.5,7.2-33.8,21.2-33.8s21.1,9.1,21.2,27.4"/>
	<path pointer-events="all" class="st2" d="M968.3,535.4l-3.5-7l3.5,1.7l3.5-1.8L968.3,535.4z"/>
	<g transform="translate(-0.5 -0.5)">
		<text transform="matrix(1 0 0 1 902.1992 497.9448)" class="st3 st4">all symbols...</text>
	</g>
	<ellipse pointer-events="all" class="st7" cx="1062.1" cy="557.8" rx="35" ry="35"/>
	<ellipse pointer-events="all" class="st9" cx="1062.1" cy="557.8" rx="31" ry="31"/>
	<g transform="translate(-0.5 -0.5)">
		<text transform="matrix(1 0 0 1 1039.4331 561.5148)" class="st3 st8">STRING</text>
	</g>
	<path pointer-events="stroke" class="st1" d="M977.1,557.8h43.6"/>
	<path pointer-events="all" class="st2" d="M1026,557.8l-7,3.5l1.8-3.5l-1.8-3.5L1026,557.8z"/>
	<g transform="translate(-0.5 -0.5)">
		<text transform="matrix(1 0 0 1 1009.3071 558.5148)" class="st6 st4">&quot;</text>
	</g>
	<path pointer-events="stroke" class="st1" d="M968.3,579c12.5,23,23.4,43.7,32.7,61.9"/>
	<path pointer-events="all" class="st2" d="M1003.4,645.6l-6.3-4.7h3.9l2.3-3.1L1003.4,645.6z"/>
	<g transform="translate(-0.5 -0.5)">
		<text transform="matrix(1 0 0 1 994.8774 612.5148)" class="st3 st4">\</text>
	</g>
	<path pointer-events="stroke" class="st1" d="M988,666.2c-33.9-8.5-47.9-32.5-41.9-72.2"/>
	<path pointer-events="all" class="st2" d="M946.9,588.9l2.4,7.4l-3.2-2.3l-3.7,1.2L946.9,588.9z"/>
	<g transform="translate(-0.5 -0.5)">
		<text transform="matrix(1 0 0 1 897.9019 640.9481)" class="st3 st4">Rune literals</text>
	</g>
	<path pointer-events="stroke" class="st1" d="M992,689.9l-34.7,23.3"/>
	<path pointer-events="all" class="st2" d="M952.9,716.1l3.9-6.8l0.5,3.9l3.4,1.9L952.9,716.1z"/>
	<g transform="translate(-0.5 -0.5)">
		<text transform="matrix(1 0 0 1 979.5918 708.9581)" class="st3 st4">x</text>
	</g>
	<ellipse pointer-events="all" class="st7" cx="1017.1" cy="673.5" rx="30" ry="30"/>
	<g transform="translate(-0.5 -0.5)">
		<text transform="matrix(1 0 0 1 986.7544 677.5148)" class="st3 st8">SPECIAL...</text>
	</g>
	<path pointer-events="stroke" class="st1" d="M905.5,712.7l-39.2-38"/>
	<path pointer-events="all" class="st2" d="M862.5,671l7.5,2.4l-3.7,1.3l-1.2,3.7L862.5,671z"/>
	<g transform="translate(-0.5 -0.5)">
		<text transform="matrix(1 0 0 1 878.8696 686.4948)" class="st3 st4">0-9,a-f,A-F</text>
	</g>
	<ellipse pointer-events="all" class="st7" cx="927.1" cy="733.5" rx="30" ry="30"/>
	<g transform="translate(-0.5 -0.5)">
		<text transform="matrix(1 0 0 1 909.7622 737.5148)" class="st3 st8">HEX...</text>
	</g>
	<path pointer-events="stroke" class="st1" d="M846.4,625c6.8-20,29.1-37.8,67-53.5"/>
	<path pointer-events="all" class="st2" d="M918.3,569.5l-5.1,5.9l0.3-3.9l-3-2.6L918.3,569.5z"/>
	<g transform="translate(-0.5 -0.5)">
		<text transform="matrix(1 0 0 1 807.0078 587.3065)" class="st3 st4">0-9,a-f,A-F</text>
	</g>
	<ellipse pointer-events="all" class="st7" cx="837.1" cy="653.5" rx="30" ry="30"/>
	<g transform="translate(-0.5 -0.5)">
		<text transform="matrix(1 0 0 1 821.4263 657.5148)" class="st3 st8">HEX1</text>
	</g>
	<path pointer-events="stroke" class="st1" d="M730.2,764.3c0,0-3.9-16.5-11.7-49.6"/>
	<path pointer-events="all" class="st2" d="M717.3,709.6l5,6l-3.8-0.9l-3,2.5L717.3,709.6z"/>
	<g transform="translate(-0.5 -0.5)">
		<text transform="matrix(1 0 0 1 728.7617 746.6248)" class="st3 st4">\n</text>
	</g>
	<ellipse pointer-events="all" class="st7" cx="737.1" cy="793.5" rx="30" ry="30"/>
	<g transform="translate(-0.5 -0.5)">
		<text transform="matrix(1 0 0 1 707.9253 790.8481)" class="st3 st8">ONE LINE </text>
		<text transform="matrix(1 0 0 1 706.6252 805.2482)" class="st3 st8">COMMENT</text>
	</g>
	<ellipse pointer-events="all" class="st7" cx="712.1" cy="673.5" rx="35" ry="35"/>
	<ellipse pointer-events="all" class="st9" cx="712.1" cy="673.5" rx="31" ry="31"/>
	<g transform="translate(-0.5 -0.5)">
		<text transform="matrix(1 0 0 1 700.0942 677.5148)" class="st3 st8">EOL</text>
	</g>
	<path pointer-events="stroke" class="st1" d="M576.7,685.8c0,0,33.4-38.7,100.1-116.2"/>
	<path pointer-events="all" class="st2" d="M680.2,565.6l-1.9,7.6l-1.5-3.6l-3.8-1L680.2,565.6z"/>
	<g transform="translate(-0.5 -0.5)">
		<text transform="matrix(1 0 0 1 601.8774 644.5148)" class="st3 st4">/</text>
	</g>
	<ellipse pointer-events="all" class="st7" cx="557.1" cy="708.5" rx="30" ry="30"/>
	<g transform="translate(-0.5 -0.5)">
		<text transform="matrix(1 0 0 1 531.7583 712.5148)" class="st3 st8">BLOCK...</text>
	</g>
	<path pointer-events="stroke" class="st1" d="M731.3,822.9c-4.3,20.4,0.6,30.6,14.6,30.6s16.4-9.1,7.3-27.4"/>
	<path pointer-events="all" class="st2" d="M750.8,821.4l6.3,4.7h-3.9l-2.3,3.1L750.8,821.4z"/>
	<g transform="translate(-0.5 -0.5)">
		<text transform="matrix(1 0 0 1 702.2004 868.1248)" class="st3 st4">all symbols</text>
	</g>
	<path pointer-events="stroke" class="st1" d="M707.1,574.5c0,0,1.5,19.2,4.5,57.7"/>
	<path pointer-events="all" class="st2" d="M712,637.4l-4-6.7l3.6,1.5l3.4-2L712,637.4z"/>
	<g transform="translate(-0.5 -0.5)">
		<text transform="matrix(1 0 0 1 714.0317 608.1248)" class="st3 st4">\n</text>
	</g>
	<path pointer-events="stroke" class="st1" d="M329.8,341.1c0,0-15-6.8-45-20.5"/>
	<path pointer-events="all" class="st2" d="M280,318.4l7.8-0.3l-3.1,2.5l0.1,3.9L280,318.4z"/>
	<g transform="translate(-0.5 -0.5)">
		<text transform="matrix(1 0 0 1 302.4282 318.5148)" class="st3 st4">=</text>
	</g>
	<ellipse pointer-events="all" class="st7" cx="357.1" cy="353.5" rx="30" ry="30"/>
	<g transform="translate(-0.5 -0.5)">
		<text transform="matrix(1 0 0 1 335.4233 357.5148)" class="st3 st8">pre-decl</text>
	</g>
	<path pointer-events="stroke" class="st1" d="M357.5,261.3c0,0-13.8-9.7-41.5-29.2"/>
	<path pointer-events="all" class="st2" d="M311.8,229.1l7.7,1.2l-3.4,1.9l-0.6,3.9L311.8,229.1z"/>
	<g transform="translate(-0.5 -0.5)">
		<text transform="matrix(1 0 0 1 335.7617 244.1148)" class="st3 st4">=</text>
	</g>
	<ellipse pointer-events="all" class="st7" cx="382.1" cy="278.5" rx="30" ry="30"/>
	<g transform="translate(-0.5 -0.5)">
		<text transform="matrix(1 0 0 1 364.7563 282.5148)" class="st3 st8">pre-nq</text>
	</g>
	<ellipse pointer-events="all" class="st7" cx="342.1" cy="123.5" rx="35" ry="35"/>
	<ellipse pointer-events="all" class="st9" cx="342.1" cy="123.5" rx="31" ry="31"/>
	<g transform="translate(-0.5 -0.5)">
		<text transform="matrix(1 0 0 1 317.7573 127.5148)" class="st3 st8">EQUALS</text>
	</g>
	<ellipse pointer-events="all" class="st7" cx="432.1" cy="53.5" rx="35" ry="35"/>
	<ellipse pointer-events="all" class="st9" cx="432.1" cy="53.5" rx="31" ry="31"/>
	<g transform="translate(-0.5 -0.5)">
		<text transform="matrix(1 0 0 1 403.8735 45.2549)" class="st3 st8">GREATER</text>
		<text transform="matrix(1 0 0 1 427.5735 59.655)" class="st3 st8">or</text>
		<text transform="matrix(1 0 0 1 408.5735 74.0549)" class="st3 st8">EQUALS</text>
	</g>
	<ellipse pointer-events="all" class="st7" cx="537.1" cy="3.5" rx="35" ry="35"/>
	<ellipse pointer-events="all" class="st9" cx="537.1" cy="3.5" rx="31" ry="31"/>
	<g transform="translate(-0.5 -0.5)">
		<text transform="matrix(1 0 0 1 522.2573 -7.4851)" class="st3 st8">LESS</text>
		<text transform="matrix(1 0 0 1 532.2573 6.915)" class="st3 st8">or</text>
		<text transform="matrix(1 0 0 1 513.2573 21.3149)" class="st3 st8">EQUALS</text>
	</g>
	<path pointer-events="stroke" class="st1" d="M569.1,81c0,0-5.4-13.1-16.3-39.2"/>
	<path pointer-events="all" class="st2" d="M550.8,36.9l5.9,5.1l-3.9-0.3l-2.6,3L550.8,36.9z"/>
	<g transform="translate(-0.5 -0.5)">
		<text transform="matrix(1 0 0 1 565.095 57.2914)" class="st3 st4">=</text>
	</g>
	<ellipse pointer-events="all" class="st7" cx="662.1" cy="-11.5" rx="35" ry="35"/>
	<ellipse pointer-events="all" class="st9" cx="662.1" cy="-11.5" rx="31" ry="31"/>
	<g transform="translate(-0.5 -0.5)">
		<text transform="matrix(1 0 0 1 643.2671 -18.8186)" class="st3 st8">MINUS</text>
		<text transform="matrix(1 0 0 1 652.5671 -4.4185)" class="st3 st8">and</text>
		<text transform="matrix(1 0 0 1 639.967 9.9814)" class="st3 st8">ASSIGN</text>
	</g>
	<ellipse pointer-events="all" class="st7" cx="772.1" cy="-6.5" rx="35" ry="35"/>
	<ellipse pointer-events="all" class="st9" cx="772.1" cy="-6.5" rx="31" ry="31"/>
	<g transform="translate(-0.5 -0.5)">
		<text transform="matrix(1 0 0 1 756.9263 -18.8184)" class="st3 st8">PLUS</text>
		<text transform="matrix(1 0 0 1 762.6262 -4.4184)" class="st3 st8">and</text>
		<text transform="matrix(1 0 0 1 749.9263 9.9816)" class="st3 st8">ASSIGN</text>
	</g>
	<ellipse pointer-events="all" class="st7" cx="642.1" cy="843.5" rx="35" ry="35"/>
	<ellipse pointer-events="all" class="st9" cx="642.1" cy="843.5" rx="31" ry="31"/>
	<g transform="translate(-0.5 -0.5)">
		<text transform="matrix(1 0 0 1 632.5864 833.4448)" class="st3 st8">DIV</text>
		<text transform="matrix(1 0 0 1 632.5864 847.8448)" class="st3 st8">and</text>
		<text transform="matrix(1 0 0 1 619.8865 862.2448)" class="st3 st8">ASSIGN</text>
	</g>
	<ellipse pointer-events="all" class="st7" cx="882.1" cy="23.5" rx="35" ry="35"/>
	<ellipse pointer-events="all" class="st9" cx="882.1" cy="23.5" rx="31" ry="31"/>
	<g transform="translate(-0.5 -0.5)">
		<text transform="matrix(1 0 0 1 869.9321 14.1814)" class="st3 st8">MUL</text>
		<text transform="matrix(1 0 0 1 872.6323 28.5813)" class="st3 st8">and</text>
		<text transform="matrix(1 0 0 1 859.9321 42.9814)" class="st3 st8">ASSIGN</text>
	</g>
	<ellipse pointer-events="all" class="st7" cx="432.1" cy="743.5" rx="35" ry="35"/>
	<ellipse pointer-events="all" class="st9" cx="432.1" cy="743.5" rx="31" ry="31"/>
	<g transform="translate(-0.5 -0.5)">
		<text transform="matrix(1 0 0 1 416.2104 743.5496)" class="st3 st8">SEMI-</text>
		<text transform="matrix(1 0 0 1 411.5105 757.9495)" class="st3 st8">COLON</text>
	</g>
	<ellipse pointer-events="all" class="st7" cx="802.1" cy="723.5" rx="35" ry="35"/>
	<ellipse pointer-events="all" class="st9" cx="802.1" cy="723.5" rx="31" ry="31"/>
	<g transform="translate(-0.5 -0.5)">
		<text transform="matrix(1 0 0 1 789.7661 727.5148)" class="st3 st8">EOF</text>
	</g>
	<path pointer-events="stroke" class="st1" d="M533.9,837.3c-5.8,20-1.8,29.9,12.2,29.9s17.4-8.5,10.3-25.4"/>
	<path pointer-events="all" class="st2" d="M554.4,837.1l5.9,5.1l-3.9-0.3l-2.5,3L554.4,837.1z"/>
	<g transform="translate(-0.5 -0.5)">
		<text transform="matrix(1 0 0 1 502.7744 883.2915)" class="st3 st4">all symbols</text>
	</g>
	<ellipse pointer-events="all" class="st7" cx="832.1" cy="483.5" rx="35" ry="35"/>
	<ellipse pointer-events="all" class="st9" cx="832.1" cy="483.5" rx="31" ry="31"/>
	<g transform="translate(-0.5 -0.5)">
		<text transform="matrix(1 0 0 1 822.4351 487.5148)" class="st3 st8">INT</text>
	</g>
	<path pointer-events="stroke" class="st1" d="M1023.1,193.5c0-10,0-22.9,0-38.6"/>
	<path pointer-events="all" class="st2" d="M1023.1,149.6l3.5,7l-3.5-1.8l-3.5,1.7L1023.1,149.6z"/>
	<g transform="translate(-0.5 -0.5)">
		<text transform="matrix(1 0 0 1 996.1416 181.7948)" class="st3 st4">1-9</text>
	</g>
	<ellipse pointer-events="all" class="st7" cx="1023.1" cy="216" rx="22.5" ry="22.5"/>
	<g transform="translate(-0.5 -0.5)">
		<text transform="matrix(1 0 0 1 1003.5151 214.529)" class="st10"><tspan x="0" y="0" class="st3 st8">prefix 0</tspan><tspan x="3" y="14.4" class="st3 st8">ignore</tspan></text>
	</g>
	<path pointer-events="stroke" class="st1" d="M1044.2,208c15.3-6.4,22.9-3.7,22.9,8c0,11.7-5.7,15.1-17,10.4"/>
	<path pointer-events="all" class="st2" d="M1045.2,224.4l7.8-0.5l-3,2.6l0.3,3.9L1045.2,224.4z"/>
	<g transform="translate(-0.5 -0.5)">
		<text transform="matrix(1 0 0 1 1070.6509 220.1248)" class="st3 st4">0</text>
	</g>
	<path pointer-events="stroke" class="st1" d="M864.4,470c0,0,40.2-16.8,120.6-50.5"/>
	<path pointer-events="all" class="st2" d="M989.8,417.5l-5.1,5.9l0.3-3.9l-3-2.6L989.8,417.5z"/>
	<g transform="translate(-0.5 -0.5)">
		<text transform="matrix(1 0 0 1 947.1177 430.0415)" class="st3 st4">.</text>
	</g>
	<path pointer-events="stroke" class="st1" d="M866.1,487.5c20.7-26,72.7-25.7,156,1s88.4-24.1,15.3-152.4"/>
	<path pointer-events="all" class="st2" d="M1034.8,331.5l6.5,4.3l-3.9,0.2l-2.2,3.3L1034.8,331.5z"/>
	<g transform="translate(-0.5 -0.5)">
		<text transform="matrix(1 0 0 1 1059.0923 481.5148)" class="st3 st4">e,E</text>
	</g>
</g>
<path class="st10" d="M175-76.2"/>
<path pointer-events="stroke" class="st1" d="M745.6,544.1c21.8,14.2,30.5,24.6,26.1,31.3c-4.3,6.7-15.3,4.3-33.1-7.1"/>
<path pointer-events="all" class="st2" d="M734.7,565.6l7.9,2.7l-2.8,0.6l0.6,2.8L734.7,565.6z"/>
<g transform="translate(-0.5 -0.5)">
	<text transform="matrix(1 0 0 1 752.9597 594.8546)" class="st3 st4">‘ ‘,/t</text>
</g>
</svg>
